<svg xmlns="http://www.w3.org/2000/svg" xmlns:xlink="http://www.w3.org/1999/xlink" version="1.1" data-diagram-type="SEQUENCE" style="width:652px;height:513px;background:#0B151B;" width="652px" height="513px" viewBox="0 0 652 513" zoomAndPan="magnify" preserveAspectRatio="none" contentStyleType="text/css"><?plantuml 1.2026.8?><defs/><g font-family="sans-serif" lengthAdjust="spacing"><rect x="0" y="0" width="652" height="513" fill="#0B151B" style="stroke:none;"/><g><title>Controller</title><rect x="63.644" y="47.297" width="8" height="454.992" fill="#000" fill-opacity="0"/><line x1="67.144" y1="47.297" x2="67.144" y2="502.289" style="stroke:#52737A;stroke-width:1;stroke-dasharray:5,5;"/></g><g><title>Node 0</title><rect x="252.003" y="47.297" width="8" height="454.992" fill="#000" fill-opacity="0"/><line x1="255.503" y1="47.297" x2="255.503" y2="502.289" style="stroke:#52737A;stroke-width:1;stroke-dasharray:5,5;"/></g><g><title>Node 1</title><rect x="424.71" y="47.297" width="8" height="454.992" fill="#000" fill-opacity="0"/><line x1="428.21" y1="47.297" x2="428.21" y2="502.289" style="stroke:#52737A;stroke-width:1;stroke-dasharray:5,5;"/></g><g><title>Node 2</title><rect x="597.417" y="47.297" width="8" height="454.992" fill="#000" fill-opacity="0"/><line x1="600.917" y1="47.297" x2="600.917" y2="502.289" style="stroke:#52737A;stroke-width:1;stroke-dasharray:5,5;"/></g><rect x="20" y="15" width="94.287" height="26.297" fill="#102129" style="stroke:#52737A;stroke-width:1;" rx="2.5" ry="2.5"/><text x="25" y="32.995" fill="#D9E7E5" font-size="14" textLength="84.287" font-family="monospace">Controller</text><rect x="225.217" y="15" width="60.572" height="26.297" fill="#102129" style="stroke:#52737A;stroke-width:1;" rx="2.5" ry="2.5"/><text x="230.217" y="32.995" fill="#D9E7E5" font-size="14" textLength="50.572" font-family="monospace">Node 0</text><rect x="397.924" y="15" width="60.572" height="26.297" fill="#102129" style="stroke:#52737A;stroke-width:1;" rx="2.5" ry="2.5"/><text x="402.924" y="32.995" fill="#D9E7E5" font-size="14" textLength="50.572" font-family="monospace">Node 1</text><rect x="570.63" y="15" width="60.572" height="26.297" fill="#102129" style="stroke:#52737A;stroke-width:1;" rx="2.5" ry="2.5"/><text x="575.63" y="32.995" fill="#D9E7E5" font-size="14" textLength="50.572" font-family="monospace">Node 2</text><polygon points="78.144,72.43,68.144,76.43,78.144,80.43,74.144,76.43" fill="#60E1C2" style="stroke:#60E1C2;stroke-width:1;stroke-linejoin:miter;stroke-miterlimit:10;"/><line x1="72.144" y1="76.43" x2="254.503" y2="76.43" style="stroke:#60E1C2;stroke-width:1;"/><text x="84.144" y="71.364" fill="#D9E7E5" font-size="13" textLength="164.36" font-family="monospace">REGISTER(id, address)</text><polygon points="78.144,101.563,68.144,105.563,78.144,109.563,74.144,105.563" fill="#60E1C2" style="stroke:#60E1C2;stroke-width:1;stroke-linejoin:miter;stroke-miterlimit:10;"/><line x1="72.144" y1="105.563" x2="427.21" y2="105.563" style="stroke:#60E1C2;stroke-width:1;"/><text x="84.144" y="100.497" fill="#D9E7E5" font-size="13" textLength="164.36" font-family="monospace">REGISTER(id, address)</text><polygon points="78.144,130.695,68.144,134.695,78.144,138.695,74.144,134.695" fill="#60E1C2" style="stroke:#60E1C2;stroke-width:1;stroke-linejoin:miter;stroke-miterlimit:10;"/><line x1="72.144" y1="134.695" x2="599.917" y2="134.695" style="stroke:#60E1C2;stroke-width:1;"/><text x="84.144" y="129.629" fill="#D9E7E5" font-size="13" textLength="164.36" font-family="monospace">REGISTER(id, address)</text><polygon points="243.503,159.828,253.503,163.828,243.503,167.828,247.503,163.828" fill="#60E1C2" style="stroke:#60E1C2;stroke-width:1;stroke-linejoin:miter;stroke-miterlimit:10;"/><line x1="67.144" y1="163.828" x2="249.503" y2="163.828" style="stroke:#60E1C2;stroke-width:1;"/><text x="74.144" y="158.762" fill="#D9E7E5" font-size="13" textLength="78.267" font-family="monospace">peer table</text><polygon points="416.21,188.961,426.21,192.961,416.21,196.961,420.21,192.961" fill="#60E1C2" style="stroke:#60E1C2;stroke-width:1;stroke-linejoin:miter;stroke-miterlimit:10;"/><line x1="67.144" y1="192.961" x2="422.21" y2="192.961" style="stroke:#60E1C2;stroke-width:1;"/><text x="74.144" y="187.895" fill="#D9E7E5" font-size="13" textLength="78.267" font-family="monospace">peer table</text><polygon points="588.917,218.094,598.917,222.094,588.917,226.094,592.917,222.094" fill="#60E1C2" style="stroke:#60E1C2;stroke-width:1;stroke-linejoin:miter;stroke-miterlimit:10;"/><line x1="67.144" y1="222.094" x2="594.917" y2="222.094" style="stroke:#60E1C2;stroke-width:1;"/><text x="74.144" y="217.028" fill="#D9E7E5" font-size="13" textLength="78.267" font-family="monospace">peer table</text><polygon points="416.21,247.227,426.21,251.227,416.21,255.227,420.21,251.227" fill="#60E1C2" style="stroke:#60E1C2;stroke-width:1;stroke-linejoin:miter;stroke-miterlimit:10;"/><line x1="255.503" y1="251.227" x2="422.21" y2="251.227" style="stroke:#60E1C2;stroke-width:1;"/><text x="262.503" y="246.161" fill="#D9E7E5" font-size="13" textLength="148.707" font-family="monospace">open TCP connection</text><polygon points="588.917,276.359,598.917,280.359,588.917,284.359,592.917,280.359" fill="#60E1C2" style="stroke:#60E1C2;stroke-width:1;stroke-linejoin:miter;stroke-miterlimit:10;"/><line x1="255.503" y1="280.359" x2="594.917" y2="280.359" style="stroke:#60E1C2;stroke-width:1;"/><text x="262.503" y="275.293" fill="#D9E7E5" font-size="13" textLength="148.707" font-family="monospace">open TCP connection</text><polygon points="588.917,305.492,598.917,309.492,588.917,313.492,592.917,309.492" fill="#60E1C2" style="stroke:#60E1C2;stroke-width:1;stroke-linejoin:miter;stroke-miterlimit:10;"/><line x1="428.21" y1="309.492" x2="594.917" y2="309.492" style="stroke:#60E1C2;stroke-width:1;"/><text x="435.21" y="304.426" fill="#D9E7E5" font-size="13" textLength="148.707" font-family="monospace">open TCP connection</text><polygon points="78.144,334.625,68.144,338.625,78.144,342.625,74.144,338.625" fill="#60E1C2" style="stroke:#60E1C2;stroke-width:1;stroke-linejoin:miter;stroke-miterlimit:10;"/><line x1="72.144" y1="338.625" x2="254.503" y2="338.625" style="stroke:#60E1C2;stroke-width:1;"/><text x="84.144" y="333.559" fill="#D9E7E5" font-size="13" textLength="39.133" font-family="monospace">READY</text><polygon points="78.144,363.758,68.144,367.758,78.144,371.758,74.144,367.758" fill="#60E1C2" style="stroke:#60E1C2;stroke-width:1;stroke-linejoin:miter;stroke-miterlimit:10;"/><line x1="72.144" y1="367.758" x2="427.21" y2="367.758" style="stroke:#60E1C2;stroke-width:1;"/><text x="84.144" y="362.692" fill="#D9E7E5" font-size="13" textLength="39.133" font-family="monospace">READY</text><polygon points="78.144,392.891,68.144,396.891,78.144,400.891,74.144,396.891" fill="#60E1C2" style="stroke:#60E1C2;stroke-width:1;stroke-linejoin:miter;stroke-miterlimit:10;"/><line x1="72.144" y1="396.891" x2="599.917" y2="396.891" style="stroke:#60E1C2;stroke-width:1;"/><text x="84.144" y="391.825" fill="#D9E7E5" font-size="13" textLength="39.133" font-family="monospace">READY</text><polygon points="243.503,422.023,253.503,426.023,243.503,430.023,247.503,426.023" fill="#60E1C2" style="stroke:#60E1C2;stroke-width:1;stroke-linejoin:miter;stroke-miterlimit:10;"/><line x1="67.144" y1="426.023" x2="249.503" y2="426.023" style="stroke:#60E1C2;stroke-width:1;"/><text x="74.144" y="420.958" fill="#D9E7E5" font-size="13" textLength="39.133" font-family="monospace">START</text><polygon points="416.21,451.156,426.21,455.156,416.21,459.156,420.21,455.156" fill="#60E1C2" style="stroke:#60E1C2;stroke-width:1;stroke-linejoin:miter;stroke-miterlimit:10;"/><line x1="67.144" y1="455.156" x2="422.21" y2="455.156" style="stroke:#60E1C2;stroke-width:1;"/><text x="74.144" y="450.09" fill="#D9E7E5" font-size="13" textLength="39.133" font-family="monospace">START</text><polygon points="588.917,480.289,598.917,484.289,588.917,488.289,592.917,484.289" fill="#60E1C2" style="stroke:#60E1C2;stroke-width:1;stroke-linejoin:miter;stroke-miterlimit:10;"/><line x1="67.144" y1="484.289" x2="594.917" y2="484.289" style="stroke:#60E1C2;stroke-width:1;"/><text x="74.144" y="479.223" fill="#D9E7E5" font-size="13" textLength="39.133" font-family="monospace">START</text><?plantuml-src dP3FJy8m583l-okUUD54axO62HnCnfZ4H1S2ktWiwqCQHb_jIlJFTy2GeNCX7dfux_lUhrxu9QuHR2wr2OgLDbOwkOQvp5PlZZP6HPIJWqisv5q-h1aA5tAJ-qSoFf5bXnSoL5YPeMgMgZwZVjoBkpMbmFSDcWn3v-YZakvPp2FH83thHVaC3iafT9NT5RsxNjXc_po6Cy55lw5Y8ftNcRRI-FD6r0l-C-MSdncNJUrvw-pKtpsNMY4iYFoSFeF07iT39ofbHtcEhWEoWEYK9bGMiXr9M0FYUyGRaDWZ4GG9Wzi7Y0OmZSTFipIUNcbr0r8fXqLn7IIy7OjM76rfmWPW4HruES-nol66d3Z9xHVRYcJHG1fD82DZCFEQp86AFoXlfSUJmz5h_SHTA4x2xnDcQJXDZzlNGr65Nm00?></g></svg>